<?xml version="1.0" encoding="UTF-8"?>
<svg xmlns="http://www.w3.org/2000/svg" viewBox="0 0 480 320" fill="none" stroke="#1F1B16" stroke-width="2.6" stroke-linecap="round" stroke-linejoin="round"><circle cx="58" cy="56" r="24"/><path d="M58 22 V12 M58 100 V90 M24 56 H14 M102 56 H92 M34 32 l-7 -7 M82 80 l7 7 M82 32 l7 -7 M34 80 l-7 7"/><circle cx="51" cy="52" r="2.2" fill="#1F1B16"/><circle cx="65" cy="52" r="2.2" fill="#1F1B16"/><path d="M51 63 q7 6 14 0"/><path d="M150 70 l3 7 l7 3 l-7 3 l-3 7 l-3 -7 l-7 -3 l7 -3z"/><path d="M430 100 l2.6 6 l6 2.6 l-6 2.6 l-2.6 6 l-2.6 -6 l-6 -2.6 l6 -2.6z"/><path d="M0 292 H480"/><circle cx="150" cy="240" r="46"/><circle cx="330" cy="240" r="46"/><circle cx="150" cy="240" r="4"/><circle cx="330" cy="240" r="4"/><path d="M150 240 L232 240 L196 156 M232 240 L280 156 M196 156 L280 156 M330 240 L280 156"/><path d="M186 152 L214 152"/><path d="M272 148 L300 150"/><path d="M232 240 l-10 16 M232 240 l10 -12"/><path d="M200 150 C 168 120 162 92 184 78 C 196 70 210 74 205 90 C 200 74 218 68 230 79 C 250 95 242 122 200 150 Z"/><circle cx="191" cy="104" r="3"/><circle cx="211" cy="104" r="3"/><path d="M192 116 q9 7 18 0"/><path d="M224 118 L286 150"/><path d="M182 120 l-14 6"/></svg>